<svg xmlns="http://www.w3.org/2000/svg" viewBox="0 0 20 20" width="20" height="20"><defs><style>.cls-1{fill:#fff;}</style></defs><path class="cls-1" d="M18,17.41l-3.11-5.89H5.21L2,17.85a2.8,2.8,0,0,0,.29,1.32c.3.41,1.84.42,1.84.42l12.77-.13S18,19,18,18.58,18,17.41,18,17.41ZM7.87,17.29A1.29,1.29,0,1,1,9.15,16a1.28,1.28,0,0,1-1.28,1.28ZM10.23,14a.66.66,0,0,1,0-1.32.67.67,0,0,1,.66.66h0a.66.66,0,0,1-.66.66Z"/><path class="cls-1" d="M15.35,13.29l2.19,4.12A1.26,1.26,0,0,1,17,19.12a1.23,1.23,0,0,1-.59.15H3.57a1.26,1.26,0,0,1-1.11-1.86l4.83-9.1A2.83,2.83,0,0,0,7.62,7V2.27h4.75V7a3,3,0,0,0,.34,1.34l2.7,5.1m.53-.24L13.22,8A2.24,2.24,0,0,1,13,7V2.27h.24a.5.5,0,0,0,.5-.5V.66a.5.5,0,0,0-.5-.5H6.81a.5.5,0,0,0-.5.5V1.77a.5.5,0,0,0,.5.5h.24V7A2.24,2.24,0,0,1,6.78,8L2,17.14a1.83,1.83,0,0,0,1.62,2.7H16.43A1.84,1.84,0,0,0,18.27,18a1.86,1.86,0,0,0-.22-.86L15.86,13M6.89,1.7v-1h6.23v1Z"/><circle class="cls-1" cx="10.64" cy="8.5" r="1.3"/></svg>